<svg width="19" height="18" viewBox="0 0 19 18" fill="none" xmlns="http://www.w3.org/2000/svg">
<path d="M13.1285 3.43547C13.4074 3.15664 13.7855 3 14.1799 3C14.3751 3 14.5684 3.03846 14.7488 3.11318C14.9292 3.18789 15.0931 3.29741 15.2312 3.43547C15.3692 3.57353 15.4788 3.73744 15.5535 3.91782C15.6282 4.09821 15.6667 4.29154 15.6667 4.48679C15.6667 4.68204 15.6282 4.87538 15.5535 5.05576C15.4788 5.23615 15.3692 5.40005 15.2312 5.53811L7.05775 13.7115C6.67327 14.096 6.19153 14.3688 5.66404 14.5007L3.66666 15L4.166 13.0026C4.29788 12.4751 4.57063 11.9934 4.95511 11.6089L13.1285 3.43547Z" stroke="white" stroke-linecap="round" stroke-linejoin="round"/>
<path d="M11.1667 5.25L13.4167 7.5" stroke="white" stroke-linejoin="round"/>
<path d="M10.4167 15L15.6667 15" stroke="white" stroke-linecap="round" stroke-linejoin="round"/>
</svg>
